<?xml version="1.0" encoding="utf-8"?>
<!-- Generator: Adobe Illustrator 19.0.0, SVG Export Plug-In . SVG Version: 6.00 Build 0)  -->
<svg version="1.1" id="Layer_1" xmlns="http://www.w3.org/2000/svg" xmlns:xlink="http://www.w3.org/1999/xlink" x="0px" y="0px"
	 width="16" height="16" viewBox="-371 589 48 48" style="enable-background:new -371 589 48 48;" xml:space="preserve">
<polygon id="XMLID_22030_" style="stroke:none;fill:#bb070e;fill-opacity:1" points="-323,615 -323,610.8 -331.8,602 -323,593.2 -323,589 -327.3,589 -336,597.7 -344.8,589 -349,589
	-349,593.3 -340.3,602 -349,610.7 -349,615 -349,615 -344.8,615 -344.8,615 -336,606.2 -327.3,615 "/>
<polygon id="XMLID_10452_" style="stroke:none;fill:#bb070e;fill-opacity:1" points="-327,619 -327,633 -345,633 -345,619 -349,619 -349,633 -367,633 -367,615 -353,615 -353,611
	-371,611 -371,637 -323,637 -323,619 "/>
</svg>
