<?xml version="1.0" encoding="utf-8"?>
<!-- Generator: Adobe Illustrator 19.0.0, SVG Export Plug-In . SVG Version: 6.00 Build 0)  -->
<svg version="1.1" id="Layer_1" xmlns="http://www.w3.org/2000/svg" xmlns:xlink="http://www.w3.org/1999/xlink" x="0px" y="0px"
	 width="16" height="16" viewBox="-371 589 48 48" style="enable-background:new -371 589 48 48;" xml:space="preserve">
<g id="XMLID_2984_">
	<polygon id="XMLID_2990_" style="stroke:none;fill:#ff7305;fill-opacity:1" points="-336.4,605 -337.8,609 -327,609 -327,633 -367,633 -367,601 -359.5,601 -357.5,605 -362,605
		-360,609 -348.3,609 -348.3,609 -347,605 -353,605 -357,597 -371,597 -371,637 -323,637 -323,605 	"/>
	<polygon id="XMLID_10490_" style="stroke:none;fill:#ff7305;fill-opacity:1" points="-353.6,612.9 -356.3,612 -357.2,614.6 -349.5,629.8 -334.4,622.1 -333.5,619.5 -336.3,618.5
		-345.6,623.3 -334.4,589 -338.6,589 -349.2,621.5 	"/>
</g>
</svg>
