<?xml version="1.0" encoding="utf-8"?>
<!-- Generator: Adobe Illustrator 19.0.0, SVG Export Plug-In . SVG Version: 6.00 Build 0)  -->
<svg version="1.1" id="Layer_1" xmlns="http://www.w3.org/2000/svg" xmlns:xlink="http://www.w3.org/1999/xlink" x="0px" y="0px"
	 width="16" height="16" viewBox="0 0 48 48" style="enable-background:new 0 0 48 48;" xml:space="preserve">
<polygon id="XMLID_2960_" style="stroke:none;fill:#bb070e;fill-opacity:1" points="231.1,148.4 209.1,148.4 209.1,126.4 205.1,126.4 205.1,148.4 183.1,148.4 183.1,152.4
	205.1,152.4 205.1,174.4 209.1,174.4 209.1,152.4 231.1,152.4 "/>
<g id="XMLID_2994_">
	<path id="XMLID_3004_" style="stroke:none;fill:#bb070e;fill-opacity:1" d="M34,18l0-10c0-4.4-3.6-8-8-8c-4.4,0-8,3.6-8,8l0,10L6,22v16.2c0,3.7-1.4,7.2-4,9.8h12c1.9,0,2-12,2-12
		s0.1,12,2,12h24c2.6-2.6,4-6.1,4-9.8L46,22L34,18z M44,32H8v-4h36L44,32z M44,26H8v-2.6l12-4L20,8c0-3.3,2.7-6,6-6
		c1.6,0,3.1,0.6,4.2,1.8C31.4,4.9,32,6.4,32,8l0,11.4l12,4L44,26z"/>
	<circle id="XMLID_3006_" style="stroke:none;fill:#bb070e;fill-opacity:1" cx="26.1" cy="8" r="2"/>
</g>
</svg>
