<?xml version="1.0" encoding="utf-8"?>
<!-- Generator: Adobe Illustrator 19.0.0, SVG Export Plug-In . SVG Version: 6.00 Build 0)  -->
<svg version="1.1" id="Layer_1" xmlns="http://www.w3.org/2000/svg" xmlns:xlink="http://www.w3.org/1999/xlink" x="0px" y="0px"
	 width="16" height="16" viewBox="0 0 48 48" style="enable-background:new 0 0 48 48;" xml:space="preserve">
<path id="XMLID_2799_" style="stroke:none;fill:#ff7305;fill-opacity:1" d="M24,39.1H12v2h12V39.1z M34,42.1c1.1,0,2-0.9,2-2c0-1.1-0.9-2-2-2c-1.1,0-2,0.9-2,2
	C32,41.2,32.9,42.1,34,42.1z M41.4,0.1H6.6L4,7.7v40.3h40V7.7L41.4,0.1z M9.4,4.1h29.1l1.3,4H8.1L9.4,4.1z M40,44.1H8v-8h32V44.1z
	 M40,32.1H8v-8h32V32.1z M40,20.1H8v-8h32V20.1z M34,30.1c1.1,0,2-0.9,2-2c0-1.1-0.9-2-2-2c-1.1,0-2,0.9-2,2
	C32,29.2,32.9,30.1,34,30.1z M24,15.1H12v2h12V15.1z M24,27.1H12v2h12V27.1z M34,18.1c1.1,0,2-0.9,2-2c0-1.1-0.9-2-2-2
	c-1.1,0-2,0.9-2,2C32,17.2,32.9,18.1,34,18.1z"/>
</svg>
