<?xml version="1.0" encoding="utf-8"?>
<!-- Generator: Adobe Illustrator 19.0.0, SVG Export Plug-In . SVG Version: 6.00 Build 0)  -->
<svg version="1.1" id="Layer_1" xmlns="http://www.w3.org/2000/svg" xmlns:xlink="http://www.w3.org/1999/xlink" x="0px" y="0px"
	 width="16" height="16" viewBox="0 0 48 48" style="enable-background:new 0 0 48 48;" xml:space="preserve">
<g id="XMLID_2798_">
	<path id="XMLID_17811_" style="stroke:none;fill:#ff7305;fill-opacity:1" d="M48,4L48,4 M48,10l-4,4v16H32v-4h-2v4H18v-8h4v-2h-4v-8h8l8-8H0v40h48L48,10 M16,30H4v-8h12V30z M16,20
		H4v-8h12V20z M4,40v-8h12v8H4z M18,40v-8h12v8H18z M44,40H32v-8h12V40z"/>
	<path id="XMLID_17832_" style="stroke:none;fill:#ff7305;fill-opacity:1" d="M47.6,2.2C47,1,45.8,0.1,44.4,0c-0.1,0-0.3,0-0.4,0s-0.3,0-0.4,0c-0.9,0.1-1.8,0.5-2.4,1.2l-0.3,0.3l0,0
		l0.8,0.8L43.4,4l3.1,3.1l0,0l0.3-0.3C47.5,6.1,48,5.1,48,4v0C48,3.4,47.8,2.8,47.6,2.2z"/>
	<path id="XMLID_17850_" style="stroke:none;fill:#ff7305;fill-opacity:1" d="M26,16.3V22h5.6L45.1,8.5l-5.7-5.6L26,16.3z M28,20v-2l2,2H28z"/>
</g>
</svg>
