<?xml version="1.0" encoding="utf-8"?>
<!-- Generator: Adobe Illustrator 19.0.0, SVG Export Plug-In . SVG Version: 6.00 Build 0)  -->
<svg version="1.1" id="Layer_1" xmlns="http://www.w3.org/2000/svg" xmlns:xlink="http://www.w3.org/1999/xlink" x="0px" y="0px"
	 width="165px" height="30.8px" viewBox="0 0 165 30.8" style="enable-background:new 0 0 165 30.8;" xml:space="preserve">
<style type="text/css">
	.st0{fill:#8F9194;}
</style>
<g id="XMLID_336_">
	<g id="XMLID_273_">
		<g id="XMLID_280_">
			<path id="XMLID_300_" class="st0" d="M53.7,11.6v3c0,0.4-0.1,0.8-0.2,1.1c0.5,0.6,0.8,1.2,0.8,2v3.3c0,0.8-0.3,1.5-0.9,2.1
				c-0.6,0.6-1.3,0.9-2.1,0.9H39.2V8.6h11.6c0.8,0,1.5,0.3,2.1,0.9C53.4,10.1,53.7,10.7,53.7,11.6z M50.8,11.4h-8.7
				c-0.1,0-0.1,0-0.1,0.1v3c0,0.1,0,0.1,0.1,0.1h8.7c0.1,0,0.1,0,0.1-0.1v-3C50.9,11.5,50.9,11.4,50.8,11.4z M51.5,20.8v-3.3
				c0-0.1,0-0.1-0.1-0.1h-9.3c-0.1,0-0.1,0-0.1,0.1v3.3c0,0.1,0,0.1,0.1,0.1h9.3C51.5,21,51.5,20.9,51.5,20.8z"/>
			<path id="XMLID_297_" class="st0" d="M66.5,11.6c0.8,0,1.5,0.3,2,0.9s0.9,1.2,0.9,2v4.6h-9.6v1.8c0,0.1,0,0.1,0.1,0.1h9.5v2.8H60
				c-0.8,0-1.5-0.3-2-0.9c-0.6-0.6-0.9-1.2-0.9-2v-6.4c0-0.8,0.3-1.5,0.9-2c0.6-0.6,1.2-0.9,2-0.9H66.5z M59.8,16.3h6.9v-1.8
				c0-0.1,0-0.1-0.1-0.1H60c-0.1,0-0.1,0-0.1,0.1V16.3z"/>
			<path id="XMLID_295_" class="st0" d="M81.6,11.6c0.8,0,1.5,0.3,2,0.9c0.6,0.6,0.9,1.2,0.9,2v9.3h-2.8v-9.3c0-0.1,0-0.1-0.1-0.1
				H75c-0.1,0-0.1,0-0.1,0.1v9.3h-2.8V11.6H81.6z"/>
			<path id="XMLID_293_" class="st0" d="M90.1,21h9.5v2.8h-9.5c-0.8,0-1.5-0.3-2-0.9c-0.6-0.6-0.9-1.2-0.9-2v-6.4
				c0-0.8,0.3-1.5,0.9-2c0.6-0.6,1.2-0.9,2-0.9h9.4v2.8h-9.4c-0.1,0-0.1,0-0.1,0.1v6.4C89.9,21,90,21,90.1,21z"/>
			<path id="XMLID_291_" class="st0" d="M111.8,11.6c0.8,0,1.5,0.3,2,0.9c0.6,0.6,0.9,1.2,0.9,2v9.3H112v-9.3c0-0.1,0-0.1-0.1-0.1
				h-6.6c-0.1,0-0.1,0-0.1,0.1v9.3h-2.8V8.6h2.8v2.9H111.8z"/>
			<g id="XMLID_281_">
				<path id="XMLID_289_" class="st0" d="M137.5,8.6h2.9l-5.5,15.1h-2.2L128.8,13l-3.9,10.7h-2.2l-5.5-15.1h2.9l3.7,10l3.7-10h2.7
					l3.7,10L137.5,8.6z"/>
				<path id="XMLID_286_" class="st0" d="M151.2,11.6c0.8,0,1.5,0.3,2,0.9c0.6,0.6,0.9,1.2,0.9,2v4.6h-9.6v1.8c0,0.1,0,0.1,0.1,0.1
					h9.5v2.8h-9.5c-0.8,0-1.5-0.3-2-0.9c-0.6-0.6-0.9-1.2-0.9-2v-6.4c0-0.8,0.3-1.5,0.9-2s1.2-0.9,2-0.9H151.2z M144.4,16.3h6.9
					v-1.8c0-0.1,0-0.1-0.1-0.1h-6.6c-0.1,0-0.1,0-0.1,0.1V16.3z"/>
				<path id="XMLID_284_" class="st0" d="M162.3,8.6h2.8v15.1h-2.8V8.6z"/>
				<path id="XMLID_282_" class="st0" d="M156.8,8.6h2.8l0,15.1l-2.8,0L156.8,8.6z"/>
			</g>
		</g>
		<path id="XMLID_274_" class="st0" d="M26.4,14.1h-0.3c2,0,3.5-1.6,3.5-3.6V4.8C29.7,2.2,27.6,0,25,0H0v30.8h14.3v-1.7h9.4v1.7h1.2
			c3.3,0,6-2.6,6-5.9v-6.4C30.8,16,28.9,14.1,26.4,14.1z M20.4,28.1h-3v-1.7h3V28.1z M21.8,24.7c0,0.4-0.4,0.7-0.8,0.7H7.8V5.2H21
			c0.4,0,0.8,0.4,0.8,0.9V8c0,0.4-0.4,0.7-0.8,0.7h-9.6v13.1H21c0.4,0,0.8,0.4,0.8,0.9V24.7z M17.4,21.1v-1.8h3v1.8H17.4z
			 M20.4,18.4h-2.9L16,16.5h5.9L20.4,18.4z"/>
	</g>
</g>
</svg>
