<?xml version="1.0" encoding="utf-8"?>
<!-- Generator: Adobe Illustrator 19.0.0, SVG Export Plug-In . SVG Version: 6.00 Build 0)  -->
<svg version="1.1" id="Layer_1" xmlns="http://www.w3.org/2000/svg" xmlns:xlink="http://www.w3.org/1999/xlink" x="0px" y="0px"
	 width="262.6px" height="49px" viewBox="0 0 262.6 49" style="enable-background:new 0 0 262.6 49;" xml:space="preserve">
<style type="text/css">
	.st0{fill:#FFFFFF;}
	.st1{fill:#FF7305;}
</style>
<g id="XMLID_43_">
	<g id="XMLID_50_">
		<path id="XMLID_78_" class="st0" d="M85.5,18.4v4.7c0,0.7-0.1,1.2-0.3,1.7c0.9,0.9,1.3,2,1.3,3.2v5.2c0,1.3-0.5,2.4-1.4,3.3
			c-0.9,0.9-2,1.4-3.3,1.4H62.4V13.7h18.4c1.3,0,2.4,0.5,3.3,1.4C85,16,85.5,17.1,85.5,18.4z M80.8,18.1H67c-0.2,0-0.2,0.1-0.2,0.2
			v4.7c0,0.2,0.1,0.2,0.2,0.2h13.8c0.1,0,0.2-0.1,0.2-0.2v-4.7C81,18.2,80.9,18.1,80.8,18.1z M82,33.2V28c0-0.1-0.1-0.2-0.2-0.2H67
			c-0.2,0-0.2,0.1-0.2,0.2v5.2c0,0.2,0.1,0.2,0.2,0.2h14.7C81.9,33.4,82,33.3,82,33.2z"/>
		<path id="XMLID_75_" class="st0" d="M105.8,18.4c1.3,0,2.4,0.5,3.3,1.4c0.9,0.9,1.4,2,1.4,3.3v7.3H95.1v2.9c0,0.2,0.1,0.2,0.2,0.2
			h15.1v4.4H95.4c-1.3,0-2.4-0.5-3.3-1.4c-0.9-0.9-1.4-2-1.4-3.3V23c0-1.3,0.5-2.4,1.4-3.3c0.9-0.9,2-1.4,3.3-1.4H105.8z M95.1,25.9
			h10.9V23c0-0.2-0.1-0.2-0.2-0.2H95.4c-0.2,0-0.2,0.1-0.2,0.2V25.9z"/>
		<path id="XMLID_73_" class="st0" d="M129.8,18.4c1.3,0,2.4,0.5,3.3,1.4c0.9,0.9,1.4,2,1.4,3.3v14.8H130V23c0-0.2-0.1-0.2-0.2-0.2
			h-10.5c-0.2,0-0.2,0.1-0.2,0.2v14.8h-4.4V18.4H129.8z"/>
		<path id="XMLID_71_" class="st0" d="M143.3,33.4h15.1v4.4h-15.1c-1.3,0-2.4-0.5-3.3-1.4c-0.9-0.9-1.4-2-1.4-3.3V23
			c0-1.3,0.5-2.4,1.4-3.3c0.9-0.9,2-1.4,3.3-1.4h15v4.4h-15c-0.2,0-0.2,0.1-0.2,0.2v10.2C143.1,33.3,143.2,33.4,143.3,33.4z"/>
		<path id="XMLID_69_" class="st0" d="M177.9,18.4c1.2,0,2.3,0.5,3.2,1.4c0.9,0.9,1.4,2,1.4,3.3v14.8h-4.4V23c0-0.2-0.1-0.2-0.2-0.2
			h-10.5c-0.2,0-0.2,0.1-0.2,0.2v14.8h-4.4V13.7h4.4v4.7H177.9z"/>
		<g id="XMLID_51_">
			<path id="XMLID_67_" class="st0" d="M218.7,13.7h4.7l-8.8,24.1h-3.5l-6.2-17.1l-6.2,17.1h-3.4l-8.8-24.1h4.7l5.8,15.9l5.8-15.9
				h4.3l5.8,15.9L218.7,13.7z"/>
			<path id="XMLID_56_" class="st0" d="M240.5,18.4c1.3,0,2.4,0.5,3.3,1.4c0.9,0.9,1.4,2,1.4,3.3v7.3h-15.3v2.9
				c0,0.2,0.1,0.2,0.2,0.2h15.1v4.4H230c-1.3,0-2.4-0.5-3.3-1.4s-1.4-2-1.4-3.3V23c0-1.3,0.5-2.4,1.4-3.3s2-1.4,3.3-1.4H240.5z
				 M229.8,25.9h10.9V23c0-0.2-0.1-0.2-0.2-0.2H230c-0.2,0-0.2,0.1-0.2,0.2V25.9z"/>
			<path id="XMLID_54_" class="st0" d="M258.1,13.7h4.4v24.1h-4.4V13.7z"/>
			<path id="XMLID_52_" class="st0" d="M249.4,13.7h4.4l0,24.1l-4.4,0L249.4,13.7z"/>
		</g>
	</g>
	<path id="XMLID_44_" class="st1" d="M42.1,22.5h-0.5c3.1,0,5.6-2.6,5.6-5.7V7.6c0-4.1-3.3-7.6-7.5-7.6H0v49h22.7v-2.7h15V49h1.9
		c5.3,0,9.5-4.2,9.5-9.4V29.4C49,25.5,46,22.5,42.1,22.5z M32.4,44.7h-4.8V42h4.8V44.7z M34.7,39.3c0,0.7-0.6,1.2-1.3,1.2H12.5V8.3
		h20.9c0.7,0,1.3,0.7,1.3,1.4v3.1c0,0.7-0.6,1.2-1.3,1.2H18.1v20.9h15.3c0.7,0,1.3,0.7,1.3,1.4V39.3z M27.7,33.5v-2.9h4.8v2.9H27.7z
		 M32.4,29.2h-4.7l-2.3-2.9h9.3L32.4,29.2z"/>
</g>
</svg>
