<?xml version="1.0" encoding="utf-8"?>
<!-- Generator: Adobe Illustrator 19.0.0, SVG Export Plug-In . SVG Version: 6.00 Build 0)  -->
<svg version="1.1" id="Layer_1" xmlns="http://www.w3.org/2000/svg" xmlns:xlink="http://www.w3.org/1999/xlink" x="0px" y="0px"
	 width="18.3px" height="20px" viewBox="197.8 387 18.3 20" style="enable-background:new 197.8 387 18.3 20;" xml:space="preserve"
	>
<style type="text/css">
	.st0{fill:#8F9194;}
</style>
<g>
	<path class="st0" d="M200,404.7h11.9l-0.6-1.8c0.1,0.1,4.9,4.2,4.9,4.2v-17.9c-0.1-1.1-1-2.1-2.2-2.1l-14,0c-1.2,0-2.2,0.9-2.2,2.1
		v13.5C197.8,403.8,198.8,404.7,200,404.7L200,404.7z M208.8,391.7L208.8,391.7L208.8,391.7L208.8,391.7z M202.4,392.8
		c1.5-1.1,2.9-1.1,2.9-1.1l0.1,0.1c-1.9,0.4-2.7,1.3-2.7,1.3c0.1,0,3.9-2.2,8.4,0.1c0,0-0.8-0.8-2.6-1.3l0.2-0.2c0.2,0,1.5,0,2.9,1
		c0,0,1.5,2.6,1.5,5.9c-0.1-0.1-1,1.4-3.3,1.4c0,0-0.4-0.4-0.7-0.8c1.4-0.4,1.9-1.2,1.9-1.2c-2.6,1.7-5,1.4-7.7,0.3c0,0,0,0-0.1,0v0
		c0,0,0,0-0.1,0h-0.1c-0.2-0.1-0.3-0.2-0.3-0.2s0.5,0.8,1.8,1.2c-0.3,0.4-0.7,0.8-0.7,0.8c-2.3-0.1-3.2-1.5-3.2-1.5
		C200.9,395.4,202.4,392.8,202.4,392.8L202.4,392.8z"/>
	<path class="st0" d="M208.9,397.6c0.6,0,1.1-0.5,1.1-1.1c0-0.6-0.5-1.1-1.1-1.1v0c-0.6,0-1.1,0.5-1.1,1.1
		C207.8,397.1,208.3,397.6,208.9,397.6z"/>
	<path class="st0" d="M205.1,397.6c0.6,0,1.1-0.5,1.1-1.1c0-0.6-0.5-1.1-1.1-1.1l0,0c-0.6,0-1.1,0.5-1.1,1.1
		C204,397.1,204.5,397.6,205.1,397.6z"/>
</g>
</svg>
