<?xml version="1.0" encoding="utf-8"?>
<!-- Generator: Adobe Illustrator 19.0.0, SVG Export Plug-In . SVG Version: 6.00 Build 0)  -->
<svg version="1.1" id="Layer_1" xmlns="http://www.w3.org/2000/svg" xmlns:xlink="http://www.w3.org/1999/xlink" x="0px" y="0px"
	 width="{{SIZE}}" height="{{SIZE}}" viewBox="0 0 48 48" style="enable-background:new 0 0 48 48;" xml:space="preserve">
<path id="XMLID_2853_" style="{{STYLE}}" d="M42,9.3C41.7,4.1,33.8,0,24,0C14.5,0,6.6,4,6,9l0,0v29.4c0,5.3,8.1,9.6,18,9.6s18-4.3,18-9.6L42,9.3
	L42,9.3z M37.2,40.1c-3.3,1.9-8,3.1-13.2,3.1c-5.2,0-9.9-1.2-13.2-3.1v-4.8c3.3,1.9,8,3.1,13.2,3.1c5.2,0,9.9-1.2,13.2-3.1V40.1z
	 M37.2,30.5c-0.4,0.2-0.8,0.5-1.3,0.7c-3.2,1.5-7.3,2.4-11.9,2.4c-4.6,0-8.7-0.9-11.9-2.4c-0.5-0.2-0.9-0.4-1.3-0.7v-4.8
	c0.4,0.2,0.8,0.5,1.3,0.7c3.2,1.5,7.3,2.4,11.9,2.4c4.6,0,8.7-0.9,11.9-2.4c0.4-0.2,0.9-0.4,1.3-0.7V30.5z M37.2,20.9
	c-0.4,0.2-0.8,0.5-1.3,0.7C32.7,23.1,28.6,24,24,24c-4.6,0-8.7-0.9-11.9-2.4c-0.5-0.2-0.9-0.4-1.3-0.7v-4.8c0.4,0.2,0.8,0.5,1.3,0.7
	c3.2,1.5,7.3,2.4,11.9,2.4c0,0,0,0,0,0c4.6,0,8.7-0.9,11.9-2.4c0.4-0.2,0.9-0.4,1.3-0.7V20.9z M36.1,12.1c-1.5,1.1-4,2.1-7.1,2.7
	c-1.5,0.3-3.2,0.4-5,0.4c-1.8,0-3.5-0.2-5-0.4c-3.2-0.6-5.6-1.6-7.1-2.7c-1.2-0.9-1.9-1.8-1.9-2.5c0-0.6,0.4-1.3,1.3-2c0,0,0,0,0,0
	C13.4,5.8,17.8,4,24,4c6.2,0,10.6,1.8,12.7,3.6c0,0,0,0,0,0C37.6,8.3,38,9,38,9.6C38,10.3,37.3,11.2,36.1,12.1z"/>
</svg>
