<?xml version="1.0" encoding="utf-8"?>
<!-- Generator: Adobe Illustrator 19.0.0, SVG Export Plug-In . SVG Version: 6.00 Build 0)  -->
<svg version="1.1" id="Layer_1" xmlns="http://www.w3.org/2000/svg" xmlns:xlink="http://www.w3.org/1999/xlink" x="0px" y="0px"
	 width="{{SIZE}}" height="{{SIZE}}" viewBox="0 0 48 48" style="enable-background:new 0 0 48 48;" xml:space="preserve">
<path id="XMLID_2794_" style="{{STYLE}}" d="M24,0C10.7,0,0,3.6,0,8v2l18,18v20l12-6V28l18-18V8C48,3.6,37.3,0,24,0z M26,26.3v13.2l-4,2V26.3
	L10.2,14.5C14.1,15.5,18.9,16,24,16c5.1,0,9.9-0.5,13.8-1.5L26,26.3z M24,4c11.1,0,17.8,2.5,19.6,4c-0.3,0.2-0.7,0.5-1.2,0.8
	c-0.8,0.4-1.8,0.8-3.2,1.2h-0.6l0.3,0.1c-1.3,0.4-2.8,0.8-4.5,1.1C31.6,11.6,28.1,12,24,12c-4.3,0-7.9-0.4-10.8-0.9
	c-1.7-0.3-3.1-0.7-4.4-1.1l0.1,0H8.8C7.4,9.6,6.3,9.1,5.5,8.7C5,8.5,4.6,8.2,4.4,8C6.2,6.5,12.9,4,24,4z"/>
</svg>
