<?xml version="1.0" encoding="utf-8"?>
<!-- Generator: Adobe Illustrator 19.0.0, SVG Export Plug-In . SVG Version: 6.00 Build 0)  -->
<svg version="1.1" id="Layer_1" xmlns="http://www.w3.org/2000/svg" xmlns:xlink="http://www.w3.org/1999/xlink" x="0px" y="0px"
	 width="{{SIZE}}" height="{{SIZE}}" viewBox="0 0 48 48" style="enable-background:new 0 0 48 48;" xml:space="preserve">
<g id="XMLID_2847_">
	<polygon id="XMLID_2856_" style="{{STYLE}}" points="34.7,17 33.6,21 42.7,21 37.1,41 10.5,41 16.1,21 23.4,21 24.5,17 13.1,17 6.3,41 4,41 4,9.1
		11.5,9.1 13.5,13.1 20.9,13.1 22.1,9.1 16,9.1 14,5.1 0,5.1 0,45 40.1,45 48,17 	"/>
	<polygon id="XMLID_6806_" style="{{STYLE}}" points="26.8,11 29.7,9.6 22.6,35 26.5,35 33.4,10.7 35.5,15 38.4,15 39.1,13.2 34.1,3 24,7.9 24,11 	"/>
</g>
</svg>
