<?xml version="1.0" encoding="utf-8"?>
<!-- Generator: Adobe Illustrator 19.0.0, SVG Export Plug-In . SVG Version: 6.00 Build 0)  -->
<svg version="1.1" id="Layer_1" xmlns="http://www.w3.org/2000/svg" xmlns:xlink="http://www.w3.org/1999/xlink" x="0px" y="0px"
	 width="{{SIZE}}" height="{{SIZE}}" viewBox="0 0 48 48" style="enable-background:new 0 0 48 48;" xml:space="preserve">
<path id="XMLID_2873_" style="{{STYLE}}" d="M40.1,10.9C36.6,7.4,32,5.5,27,5.5c-2.5,0-4.9,0.5-7.1,1.4c-1.9,0.8-3.8,2-5.4,3.4l2.8,2.8
	c2.7-2.4,6-3.6,9.6-3.6c3.9,0,7.5,1.5,10.2,4.2c2.7,2.7,4.2,6.4,4.2,10.3s-1.5,7.5-4.2,10.2c-2.7,2.7-6.2,4.3-10.1,4.3
	s-7.5-1.5-10.3-4.2s-4.2-6.4-4.2-10.2c0-0.7,0-1.3,0.1-1.9l4,3.9h2.8v-2.8L11,14.9l-0.1-0.2l-8.4,8.4v3l0,0h2.6l3.5-3.6
	c0,0.5-0.1,1-0.1,1.5c0,4.9,1.9,9.6,5.4,13.1S22,42.5,27,42.5c4.9,0,9.6-1.9,13.1-5.4S45.5,29,45.5,24
	C45.5,19.1,43.6,14.4,40.1,10.9z"/>
</svg>
