<?xml version="1.0" encoding="utf-8"?>
<!-- Generator: Adobe Illustrator 19.0.0, SVG Export Plug-In . SVG Version: 6.00 Build 0)  -->
<svg version="1.1" id="Layer_1" xmlns="http://www.w3.org/2000/svg" xmlns:xlink="http://www.w3.org/1999/xlink" x="0px" y="0px"
	 width="{{SIZE}}" height="{{SIZE}}" viewBox="0 0 48 48" style="enable-background:new 0 0 48 48;" xml:space="preserve">
<g id="XMLID_2848_">
	<polygon id="XMLID_2850_" style="{{STYLE}}" points="35.7,17 34.5,21 42.7,21 37.1,41 10.5,41 16.1,21 24.3,21 25.5,17 13.1,17 6.3,41 4,41 4,9.1
		11.5,9.1 13.5,13.1 20.9,13.1 21,13 22.1,9.1 16,9.1 14,5.1 0,5.1 0,45 40.1,45 48,17 	"/>
	<polygon id="XMLID_6788_" style="{{STYLE}}" points="23.7,23.3 23.6,23 20.6,23 20,24.9 25,35 35.1,30.1 35.1,27 32.2,27 29.3,28.5 36.5,3 32.5,3
		25.7,27.4 	"/>
</g>
</svg>
