<?xml version="1.0" encoding="utf-8"?>
<!-- Generator: Adobe Illustrator 19.0.0, SVG Export Plug-In . SVG Version: 6.00 Build 0)  -->
<svg version="1.1" id="Layer_1" xmlns="http://www.w3.org/2000/svg" xmlns:xlink="http://www.w3.org/1999/xlink" x="0px" y="0px"
	 width="{{SIZE}}" height="{{SIZE}}" viewBox="0 0 48 48" style="enable-background:new 0 0 48 48;" xml:space="preserve">
<path id="XMLID_6747_" style="{{STYLE}}" d="M48,4H0v40h48V7.9V4z M16,40H4v-8h12V40z M16,30H4v-8h12V30z M16,20H4v-8.1h12V20z M30,40H18v-8h12V40z
	 M30,30H18v-8h12V30z M30,20H18v-8.1h12V20z M44,40H32v-8h12V40z M44,30H32v-8h12V30z M44,20H32v-8.1h12V20z"/>
</svg>
