<?xml version="1.0" encoding="UTF-8" standalone="no"?>
<svg
   xmlns:dc="http://purl.org/dc/elements/1.1/"
   xmlns:cc="http://creativecommons.org/ns#"
   xmlns:rdf="http://www.w3.org/1999/02/22-rdf-syntax-ns#"
   xmlns:svg="http://www.w3.org/2000/svg"
   xmlns="http://www.w3.org/2000/svg"
   width="64"
   height="64"
   viewBox="0 0 30.042114 30.042114"
   version="1.1"
   id="svg1552">
  <defs
     id="defs1546" />
  <metadata
     id="metadata1549">
    <rdf:RDF>
      <cc:Work
         rdf:about="">
        <dc:format>image/svg+xml</dc:format>
        <dc:type
           rdf:resource="http://purl.org/dc/dcmitype/StillImage" />
        <dc:title></dc:title>
      </cc:Work>
    </rdf:RDF>
  </metadata>
  <g
     id="layer1">
    <g
       id="g20"
       transform="matrix(0.35277777,0,0,-0.35277777,18.913686,19.775466)">
      <path
         d="M 0,0 H -18.556 V 25.232 H 0 c 0.854,0 1.551,0.669 1.551,1.515 v 3.69 c 0,0.846 -0.697,1.498 -1.551,1.498 H -25.259 V -6.702 H 0 c 0.854,0 1.551,0.723 1.551,1.569 v 3.691 C 1.551,-0.596 0.854,0 0,0"
         style="fill:#ff7305;fill-opacity:1;fill-rule:nonzero;stroke:none"
         id="path22" />
    </g>
    <path
       d="m 16.539949,23.948086 h 1.947334 v -1.25165 h -1.947334 z"
       style="fill:#ff7305;fill-opacity:1;fill-rule:nonzero;stroke:none;stroke-width:0.352777"
       id="path24" />
    <path
       d="m 16.539949,19.080106 h 1.947334 v -1.25165 h -1.947334 z"
       style="fill:#ff7305;fill-opacity:1;fill-rule:nonzero;stroke:none;stroke-width:0.352777"
       id="path26" />
    <g
       id="g28"
       transform="matrix(0.35277777,0,0,-0.35277777,25.463249,21.420699)">
      <path
         d="m 0,0 c 0,-6.308 -5.2,-11.458 -11.567,-11.458 h -2.232 v 3.548 h -18.136 v -3.548 H -59.138 V 47.68 h 47.817 c 4.985,0 8.955,-4.344 8.955,-9.284 V 27.375 c 0,-3.719 -2.971,-6.898 -6.724,-6.898 h 0.57 C -3.836,20.477 0,16.879 0,12.239 Z M -72.149,-24.468 H 13.01 v 85.159 h -85.159 z"
         style="fill:#ff7305;fill-opacity:1;fill-rule:nonzero;stroke:none"
         id="path30" />
    </g>
    <g
       id="g32"
       transform="matrix(0.35277777,0,0,-0.35277777,16.52217,17.271986)">
      <path
         d="M 0,0 H 5.594 L 8.413,3.548 H -2.819 Z"
         style="fill:#ff7305;fill-opacity:1;fill-rule:nonzero;stroke:none"
         id="path34" />
    </g>
  </g>
</svg>
