<?xml version="1.0" encoding="utf-8"?>
<!-- Generator: Adobe Illustrator 19.0.0, SVG Export Plug-In . SVG Version: 6.00 Build 0)  -->
<svg version="1.1" id="Layer_1" xmlns="http://www.w3.org/2000/svg" xmlns:xlink="http://www.w3.org/1999/xlink" x="0px" y="0px"
	 width="16" height="16" viewBox="0 0 48 48" style="enable-background:new 0 0 48 48;" xml:space="preserve">
<path id="XMLID_2903_" style="stroke:none;fill:#ffffff;fill-opacity:1" d="M43.7,30.5H48V17.7h-4.3c-0.7,0-1.3-0.4-1.6-1.1c-0.3-0.7-0.1-1.4,0.4-1.9l3-3l-9.1-9.1l-3,3
	c-0.5,0.5-1.2,0.6-1.9,0.3c-0.6-0.3-1.1-0.9-1.1-1.6V0.1H17.6v4.3c0,0.7-0.4,1.3-1.1,1.6c-0.6,0.3-1.4,0.1-1.9-0.4l-3-3l-9.1,9.1
	l3,3c0.5,0.5,0.6,1.2,0.3,1.9c-0.3,0.6-0.9,1.1-1.6,1.1H0v12.8h4.3c0.7,0,1.3,0.4,1.6,1.1C6.2,32.2,6,33,5.5,33.5l-3,3l9.1,9.1l3-3
	c0.5-0.5,1.2-0.6,1.9-0.3c0.6,0.3,1.1,0.9,1.1,1.6v4.3h12.8v-4.3c0-0.7,0.4-1.3,1.1-1.6c0.7-0.3,1.4-0.1,1.9,0.4l3,3l9.1-9.1l-3-3
	c-0.5-0.5-0.6-1.2-0.4-1.9C42.4,30.9,43,30.5,43.7,30.5z M38.4,30c-0.9,2.2-0.4,4.6,1.2,6.3l0.2,0.2l-3.4,3.4l-0.2-0.2
	c-1.6-1.6-4.1-2.1-6.3-1.2c-2.1,0.9-3.5,3-3.5,5.3v0.3h-4.8v-0.3c0-2.3-1.4-4.4-3.6-5.3c-2.1-0.9-4.6-0.4-6.2,1.2l-0.2,0.2l-3.4-3.4
	l0.2-0.2c1.6-1.6,2.1-4.1,1.2-6.3c-0.9-2.1-3-3.5-5.3-3.5H4v-4.8h0.3c2.3,0,4.4-1.4,5.3-3.6c0.9-2.2,0.4-4.6-1.2-6.2l-0.2-0.2
	l3.4-3.4l0.2,0.2c1.6,1.6,4.1,2.1,6.3,1.2c2.1-0.9,3.5-3,3.5-5.3V4.1h4.8v0.3c0,2.3,1.4,4.4,3.6,5.3c2.1,0.9,4.6,0.4,6.2-1.2
	l0.2-0.2l3.4,3.4l-0.2,0.2c-1.6,1.6-2.1,4.1-1.2,6.3c0.9,2.1,3,3.5,5.3,3.5H44v4.8h-0.3C41.4,26.5,39.3,27.8,38.4,30z M24,16.1
	c-4.4,0-8,3.6-8,8s3.6,8,8,8s8-3.6,8-8S28.4,16.1,24,16.1z M24,28.1c-2.2,0-4-1.8-4-4s1.8-4,4-4s4,1.8,4,4S26.2,28.1,24,28.1z"/>
</svg>
