<?xml version="1.0" encoding="utf-8"?>
<!-- Generator: Adobe Illustrator 19.0.0, SVG Export Plug-In . SVG Version: 6.00 Build 0)  -->
<svg version="1.1" id="Layer_1" xmlns="http://www.w3.org/2000/svg" xmlns:xlink="http://www.w3.org/1999/xlink" x="0px" y="0px"
	 width="16" height="16" viewBox="0 0 48 48" style="enable-background:new 0 0 48 48;" xml:space="preserve">
<g id="XMLID_2957_">
	<path id="XMLID_2963_" style="stroke:none;fill:#bb070e;fill-opacity:1" d="M44,36.5c-0.5,0-1,0.1-1.5,0.3l-3.2-2.6c0.5-0.5,0.8-1.2,1-2L42,21.8l0-0.3c0-2.7-0.6-5.2-1.7-7.5
		l2.2-1.8c0.5,0.2,0.9,0.3,1.5,0.3c2.2,0,4-1.8,4-4c0-2.2-1.8-4-4-4c-2.2,0-4,1.8-4,4c0,0.2,0,0.4,0,0.6l-1.8,1.4
		c-3.3-4.3-8.5-7-14.3-7c-5.8,0-11,2.8-14.3,7L7.9,9.1C8,8.9,8,8.7,8,8.5c0-2.2-1.8-4-4-4c-2.2,0-4,1.8-4,4c0,2.2,1.8,4,4,4
		c0.5,0,1-0.1,1.5-0.3L7.7,14C6.6,16.3,6,18.8,6,21.5l1.8,10.7c0.1,0.8,0.5,1.5,1,2l-3.2,2.6C5,36.6,4.5,36.5,4,36.5
		c-2.2,0-4,1.8-4,4c0,2.2,1.8,4,4,4c2.2,0,4-1.8,4-4c0-0.2,0-0.4-0.1-0.6l5.5-4.4H14v7h20v-7h0.5l5.5,4.4c0,0.2,0,0.4,0,0.6
		c0,2.2,1.8,4,4,4c2.2,0,4-1.8,4-4C48,38.3,46.2,36.5,44,36.5z M36.3,31.5h-0.4H34c-1.1,0-2.2,0.5-2.9,1.2c-0.7,0.7-1.1,1.7-1.1,2.8
		v1v1H18v-1v-1c0-1.1-0.4-2-1.1-2.8c-0.7-0.8-1.8-1.2-2.9-1.2h-2h-0.4L10,21.3c0-1.7,0.3-3.3,0.9-4.8c0,0,0,0,0,0
		c0.5-1.3,1.2-2.5,2-3.5c2.6-3.4,6.6-5.5,11.1-5.5c4.5,0,8.6,2.2,11.1,5.5c0.8,1.1,1.5,2.3,2,3.5c0.6,1.5,0.9,3.1,0.9,4.8L36.3,31.5
		z"/>
	<path id="XMLID_2966_" style="stroke:none;fill:#bb070e;fill-opacity:1" d="M30,18.5c-2.2,0-4,1.8-4,4c0,0.4,0.1,0.8,0.2,1.2c0,0,0,0,0,0c0.1,0.4,0.3,0.8,0.6,1.2
		c0.7,0.9,1.7,1.5,2.9,1.6c0.1,0,0.2,0,0.3,0c2.2,0,4-1.8,4-4c0-1-0.4-1.9-1-2.6C32.3,19,31.2,18.5,30,18.5z"/>
	<polygon id="XMLID_2967_" style="stroke:none;fill:#bb070e;fill-opacity:1" points="22,32.5 26,32.5 24,28.5 	"/>
	<path id="XMLID_2968_" style="stroke:none;fill:#bb070e;fill-opacity:1" d="M18,18.5c-1.2,0-2.3,0.5-3,1.4c-0.6,0.7-1,1.6-1,2.6c0,2.2,1.8,4,4,4c0.1,0,0.2,0,0.3,0
		c1.2-0.1,2.2-0.7,2.9-1.6c0.2-0.4,0.4-0.7,0.6-1.2c0,0,0,0,0,0c0.1-0.4,0.2-0.8,0.2-1.2C22,20.3,20.2,18.5,18,18.5z"/>
</g>
</svg>
