<?xml version="1.0" encoding="utf-8"?>
<!-- Generator: Adobe Illustrator 19.0.0, SVG Export Plug-In . SVG Version: 6.00 Build 0)  -->
<svg version="1.1" id="Layer_1" xmlns="http://www.w3.org/2000/svg" xmlns:xlink="http://www.w3.org/1999/xlink" x="0px" y="0px"
	 width="16" height="16" viewBox="0 0 48 48" style="enable-background:new 0 0 48 48;" xml:space="preserve">
<path id="XMLID_17835_" style="stroke:none;fill:#bb070e;fill-opacity:1" d="M48,15.1L41.8,9L48,2.8V0h-2.8L39,6.1L32.9,0H30v2.8L36.2,9L30,15.1V18h2.8l6.2-6.2l6.2,6.2H48V15.1z
	 M48,22h-4v8H32v-8h-2v8H18v-8h8v-2h-8v-8h8l4-4h0v0l-4-4H0v40h48V22z M16,30H4v-8h12V30z M16,20H4v-8h12V20z M4,40v-8h12v8H4z
	 M18,40v-8h12v8H18z M44,40H32v-8h12V40z"/>
</svg>
