<?xml version="1.0" encoding="utf-8"?>
<!-- Generator: Adobe Illustrator 19.0.0, SVG Export Plug-In . SVG Version: 6.00 Build 0)  -->
<svg version="1.1" id="Layer_1" xmlns="http://www.w3.org/2000/svg" xmlns:xlink="http://www.w3.org/1999/xlink" x="0px" y="0px"
	 width="16" height="16" viewBox="-371 589 48 48" style="enable-background:new -371 589 48 48;" xml:space="preserve">
<path id="XMLID_21960_" style="stroke:none;fill:#ffffff;fill-opacity:1" d="M-331,599.2c-3.7-3.7-8.6-5.7-13.8-5.7c-4.9,0-9.5,1.8-13.2,5.1l4.2,4.2c2.5-2.2,5.6-3.3,8.9-3.3
	c3.6,0,7,1.4,9.5,3.9s4,5.9,4,9.6c0,3.6-1.4,7-4,9.5c-2.5,2.5-5.9,4-9.5,4c-3.6,0-7-1.4-9.5-4c-2.5-2.5-3.9-5.7-4-9.2l2.2,2.2v0h2.9
	v-5.6l-7.7-7.7l-7.8,7.8v5.6h2.9v0l1.5-1.6c0.2,4.7,2.1,9.3,5.7,12.8c3.7,3.7,8.6,5.7,13.8,5.7s10.1-2,13.8-5.7
	c3.7-3.7,5.7-8.6,5.7-13.8C-325.3,607.8-327.3,602.9-331,599.2z"/>
</svg>
